STARTFONT 2.1
FONT -Monotype-Century Schoolbook-Bold-R-Normal--14-140-75-75-P-76-iso8859-2
SIZE 14 75 75
FONTBOUNDINGBOX 19 19 -3 -4

STARTPROPERTIES 22
FOUNDRY "Monotype"
FAMILY_NAME "Century Schoolbook"
WEIGHT_NAME "Bold"
SLANT "R"
SETWIDTH_NAME "Normal"
ADD_STYLE_NAME ""
PIXEL_SIZE 14
POINT_SIZE 140
RESOLUTION_X 75
RESOLUTION_Y 75
SPACING "P"
AVERAGE_WIDTH 76
CHARSET_REGISTRY "iso8859"
CHARSET_ENCODING "2"
COPYRIGHT "Copyright (c) 1996 Monotype Typography Ltd."
CAP_HEIGHT 13
X_HEIGHT 8
WEIGHT 10
QUAD_WIDTH 9
DEFAULT_CHAR 160
FONT_DESCENT 4
FONT_ASCENT 15
ENDPROPERTIES

CHARS 191

STARTCHAR space
ENCODING 32
SWIDTH 287 0
DWIDTH 4 0
BBX 0 0 0 0
BITMAP
ENDCHAR

STARTCHAR exclam
ENCODING 33
SWIDTH 296 0
DWIDTH 4 0
BBX 2 11 1 0
BITMAP
C0
C0
C0
C0
C0
C0
40
00
00
C0
C0
ENDCHAR

STARTCHAR quotedbl
ENCODING 34
SWIDTH 333 0
DWIDTH 5 0
BBX 5 4 0 7
BITMAP
D8
D8
D8
48
ENDCHAR

STARTCHAR numbersign
ENCODING 35
SWIDTH 574 0
DWIDTH 9 0
BBX 8 11 0 0
BITMAP
12
12
12
7F
24
24
24
FE
48
48
48
ENDCHAR

STARTCHAR dollar
ENCODING 36
SWIDTH 574 0
DWIDTH 9 0
BBX 7 14 1 -2
BITMAP
10
3C
56
D4
D0
F0
78
1C
1E
56
D4
78
10
10
ENDCHAR

STARTCHAR percent
ENCODING 37
SWIDTH 833 0
DWIDTH 12 0
BBX 10 11 1 0
BITMAP
6080
D100
9200
9200
B400
6980
0B40
1240
2240
22C0
4180
ENDCHAR

STARTCHAR ampersand
ENCODING 38
SWIDTH 852 0
DWIDTH 13 0
BBX 12 11 1 0
BITMAP
1E00
3300
3300
3200
1C00
3CE0
4C40
CE80
C710
E390
7DE0
ENDCHAR

STARTCHAR quoteright
ENCODING 39
SWIDTH 241 0
DWIDTH 4 0
BBX 3 5 0 6
BITMAP
40
E0
60
20
C0
ENDCHAR

STARTCHAR parenleft
ENCODING 40
SWIDTH 389 0
DWIDTH 6 0
BBX 4 14 1 -3
BITMAP
10
20
60
40
C0
C0
C0
C0
C0
C0
40
60
20
10
ENDCHAR

STARTCHAR parenright
ENCODING 41
SWIDTH 389 0
DWIDTH 6 0
BBX 4 14 1 -3
BITMAP
80
40
60
20
30
30
30
30
30
30
20
60
40
80
ENDCHAR

STARTCHAR asterisk
ENCODING 42
SWIDTH 500 0
DWIDTH 8 0
BBX 8 7 0 4
BITMAP
18
18
FF
3C
18
3C
24
ENDCHAR

STARTCHAR plus
ENCODING 43
SWIDTH 606 0
DWIDTH 9 0
BBX 9 9 0 1
BITMAP
0800
0800
0800
0800
FF80
0800
0800
0800
0800
ENDCHAR

STARTCHAR comma
ENCODING 44
SWIDTH 278 0
DWIDTH 4 0
BBX 3 4 1 -2
BITMAP
60
60
20
C0
ENDCHAR

STARTCHAR minus
ENCODING 45
SWIDTH 606 0
DWIDTH 9 0
BBX 9 1 0 5
BITMAP
FF80
ENDCHAR

STARTCHAR period
ENCODING 46
SWIDTH 278 0
DWIDTH 4 0
BBX 2 2 1 0
BITMAP
C0
C0
ENDCHAR

STARTCHAR slash
ENCODING 47
SWIDTH 278 0
DWIDTH 4 0
BBX 4 11 0 0
BITMAP
10
30
30
20
60
60
60
40
C0
C0
80
ENDCHAR

STARTCHAR zero
ENCODING 48
SWIDTH 574 0
DWIDTH 9 0
BBX 7 11 1 0
BITMAP
38
6C
C6
C6
C6
C6
C6
C6
C6
6C
38
ENDCHAR

STARTCHAR one
ENCODING 49
SWIDTH 574 0
DWIDTH 9 0
BBX 6 11 2 0
BITMAP
10
F0
30
30
30
30
30
30
30
30
FC
ENDCHAR

STARTCHAR two
ENCODING 50
SWIDTH 574 0
DWIDTH 9 0
BBX 7 11 0 0
BITMAP
3C
46
46
66
26
0C
08
12
22
7E
FE
ENDCHAR

STARTCHAR three
ENCODING 51
SWIDTH 574 0
DWIDTH 9 0
BBX 7 11 1 0
BITMAP
7C
86
C6
46
0C
38
0C
46
C6
86
7C
ENDCHAR

STARTCHAR four
ENCODING 52
SWIDTH 574 0
DWIDTH 9 0
BBX 8 11 0 0
BITMAP
04
0C
0C
1C
2C
2C
4C
FF
0C
0C
3F
ENDCHAR

STARTCHAR five
ENCODING 53
SWIDTH 574 0
DWIDTH 9 0
BBX 7 11 1 0
BITMAP
FE
F8
80
80
F8
8C
06
46
C6
84
78
ENDCHAR

STARTCHAR six
ENCODING 54
SWIDTH 574 0
DWIDTH 9 0
BBX 7 11 1 0
BITMAP
3C
66
C4
C0
DC
E6
C6
C6
C6
44
38
ENDCHAR

STARTCHAR seven
ENCODING 55
SWIDTH 574 0
DWIDTH 9 0
BBX 7 11 1 0
BITMAP
7E
FE
82
84
0C
08
18
18
30
30
30
ENDCHAR

STARTCHAR eight
ENCODING 56
SWIDTH 574 0
DWIDTH 9 0
BBX 7 11 1 0
BITMAP
7C
C6
C2
E2
76
3C
5E
CE
86
C6
7C
ENDCHAR

STARTCHAR nine
ENCODING 57
SWIDTH 574 0
DWIDTH 9 0
BBX 7 11 1 0
BITMAP
38
44
C6
C6
C6
CE
76
06
46
CC
78
ENDCHAR

STARTCHAR colon
ENCODING 58
SWIDTH 278 0
DWIDTH 4 0
BBX 2 7 1 0
BITMAP
C0
C0
00
00
00
C0
C0
ENDCHAR

STARTCHAR semicolon
ENCODING 59
SWIDTH 278 0
DWIDTH 4 0
BBX 3 9 0 -2
BITMAP
60
60
00
00
40
E0
60
20
C0
ENDCHAR

STARTCHAR less
ENCODING 60
SWIDTH 606 0
DWIDTH 9 0
BBX 9 8 0 1
BITMAP
0380
0E00
3800
E000
E000
3800
0E00
0380
ENDCHAR

STARTCHAR equal
ENCODING 61
SWIDTH 606 0
DWIDTH 9 0
BBX 9 4 0 3
BITMAP
FF80
0000
0000
FF80
ENDCHAR

STARTCHAR greater
ENCODING 62
SWIDTH 606 0
DWIDTH 9 0
BBX 9 8 0 1
BITMAP
E000
3800
0E00
0380
0380
0E00
3800
E000
ENDCHAR

STARTCHAR question
ENCODING 63
SWIDTH 500 0
DWIDTH 8 0
BBX 6 11 1 0
BITMAP
78
8C
CC
4C
18
20
20
00
00
30
30
ENDCHAR

STARTCHAR at
ENCODING 64
SWIDTH 747 0
DWIDTH 11 0
BBX 11 12 0 -1
BITMAP
0F00
30C0
4040
47A0
9B20
9320
B320
BEC0
5320
4020
30C0
0F00
ENDCHAR

STARTCHAR A
ENCODING 65
SWIDTH 759 0
DWIDTH 12 0
BBX 10 11 1 0
BITMAP
0C00
0C00
0C00
1600
1600
2300
3F00
2300
4180
4180
E3C0
ENDCHAR

STARTCHAR B
ENCODING 66
SWIDTH 778 0
DWIDTH 12 0
BBX 10 11 1 0
BITMAP
FE00
6300
6180
6180
6300
7E00
6180
60C0
60C0
6180
FF00
ENDCHAR

STARTCHAR C
ENCODING 67
SWIDTH 778 0
DWIDTH 12 0
BBX 10 11 1 0
BITMAP
1F40
61C0
60C0
C040
C000
C000
C000
C040
6040
6080
1F00
ENDCHAR

STARTCHAR D
ENCODING 68
SWIDTH 833 0
DWIDTH 12 0
BBX 10 11 1 0
BITMAP
FE00
6180
6180
60C0
60C0
60C0
60C0
60C0
6180
6180
FE00
ENDCHAR

STARTCHAR E
ENCODING 69
SWIDTH 759 0
DWIDTH 11 0
BBX 9 11 1 0
BITMAP
FF80
6180
6080
6480
6400
7C00
6400
6480
6080
6180
FF80
ENDCHAR

STARTCHAR F
ENCODING 70
SWIDTH 722 0
DWIDTH 11 0
BBX 9 11 1 0
BITMAP
FF80
6180
6080
6480
6400
7C00
6400
6400
6000
6000
F000
ENDCHAR

STARTCHAR G
ENCODING 71
SWIDTH 833 0
DWIDTH 12 0
BBX 11 11 1 0
BITMAP
1F40
61C0
60C0
C040
C000
C000
C3E0
C0C0
60C0
6140
1E40
ENDCHAR

STARTCHAR H
ENCODING 72
SWIDTH 870 0
DWIDTH 13 0
BBX 11 11 1 0
BITMAP
F1E0
60C0
60C0
60C0
60C0
7FC0
60C0
60C0
60C0
60C0
F1E0
ENDCHAR

STARTCHAR I
ENCODING 73
SWIDTH 444 0
DWIDTH 6 0
BBX 4 11 1 0
BITMAP
F0
60
60
60
60
60
60
60
60
60
F0
ENDCHAR

STARTCHAR J
ENCODING 74
SWIDTH 648 0
DWIDTH 10 0
BBX 8 11 1 0
BITMAP
0F
06
06
06
06
06
06
46
E6
4C
38
ENDCHAR

STARTCHAR K
ENCODING 75
SWIDTH 815 0
DWIDTH 12 0
BBX 11 11 1 0
BITMAP
F3C0
6100
6200
6400
6400
6E00
7600
6300
6300
6180
F3E0
ENDCHAR

STARTCHAR L
ENCODING 76
SWIDTH 722 0
DWIDTH 11 0
BBX 9 11 1 0
BITMAP
F000
6000
6000
6000
6000
6000
6000
6080
6080
6180
FF80
ENDCHAR

STARTCHAR M
ENCODING 77
SWIDTH 981 0
DWIDTH 15 0
BBX 13 11 1 0
BITMAP
F078
7070
70B0
58B0
58B0
5930
4D30
4F30
4E30
4630
E678
ENDCHAR

STARTCHAR N
ENCODING 78
SWIDTH 833 0
DWIDTH 12 0
BBX 10 11 1 0
BITMAP
E1C0
7080
7080
5880
4C80
4C80
4680
4380
4380
4180
E080
ENDCHAR

STARTCHAR O
ENCODING 79
SWIDTH 833 0
DWIDTH 12 0
BBX 10 11 1 0
BITMAP
1E00
6180
6180
C0C0
C0C0
C0C0
C0C0
C0C0
6180
6180
1E00
ENDCHAR

STARTCHAR P
ENCODING 80
SWIDTH 759 0
DWIDTH 11 0
BBX 9 11 1 0
BITMAP
FE00
6300
6180
6180
6300
7E00
6000
6000
6000
6000
F000
ENDCHAR

STARTCHAR Q
ENCODING 81
SWIDTH 833 0
DWIDTH 12 0
BBX 10 14 1 -3
BITMAP
1E00
6180
6180
C0C0
C0C0
C0C0
C0C0
CEC0
7380
7380
1F00
0300
0340
0180
ENDCHAR

STARTCHAR R
ENCODING 82
SWIDTH 815 0
DWIDTH 12 0
BBX 10 11 1 0
BITMAP
FE00
6300
6180
6180
6300
7E00
6600
6300
6300
6340
F180
ENDCHAR

STARTCHAR S
ENCODING 83
SWIDTH 667 0
DWIDTH 10 0
BBX 8 11 1 0
BITMAP
7D
C7
C3
E1
78
3E
0F
83
C3
E6
9C
ENDCHAR

STARTCHAR T
ENCODING 84
SWIDTH 722 0
DWIDTH 12 0
BBX 10 11 1 0
BITMAP
7F80
CCC0
8C40
8C40
0C00
0C00
0C00
0C00
0C00
0C00
1E00
ENDCHAR

STARTCHAR U
ENCODING 85
SWIDTH 833 0
DWIDTH 12 0
BBX 10 11 1 0
BITMAP
F1C0
6080
6080
6080
6080
6080
6080
6080
6080
3100
1E00
ENDCHAR

STARTCHAR V
ENCODING 86
SWIDTH 759 0
DWIDTH 12 0
BBX 10 11 1 0
BITMAP
F1C0
6080
6080
6100
3100
3100
1A00
1A00
1E00
0C00
0C00
ENDCHAR

STARTCHAR W
ENCODING 87
SWIDTH 981 0
DWIDTH 15 0
BBX 15 11 0 0
BITMAP
F3CE
6184
6184
6388
32C8
32C8
34D0
1CF0
1860
1860
1860
ENDCHAR

STARTCHAR X
ENCODING 88
SWIDTH 722 0
DWIDTH 11 0
BBX 11 11 0 0
BITMAP
FBC0
7180
3100
1A00
1C00
0E00
0E00
1300
2180
61C0
F3E0
ENDCHAR

STARTCHAR Y
ENCODING 89
SWIDTH 722 0
DWIDTH 10 0
BBX 10 11 0 0
BITMAP
F9C0
7080
3100
1900
1A00
0C00
0C00
0C00
0C00
0C00
1E00
ENDCHAR

STARTCHAR Z
ENCODING 90
SWIDTH 667 0
DWIDTH 10 0
BBX 8 11 1 0
BITMAP
FF
C3
86
8C
0C
18
30
61
61
C3
FF
ENDCHAR

STARTCHAR bracketleft
ENCODING 91
SWIDTH 389 0
DWIDTH 6 0
BBX 4 14 2 -3
BITMAP
F0
C0
C0
C0
C0
C0
C0
C0
C0
C0
C0
C0
C0
F0
ENDCHAR

STARTCHAR backslash
ENCODING 92
SWIDTH 606 0
DWIDTH 9 0
BBX 9 11 0 0
BITMAP
C000
6000
2000
3000
1800
0800
0C00
0600
0200
0300
0180
ENDCHAR

STARTCHAR bracketright
ENCODING 93
SWIDTH 389 0
DWIDTH 6 0
BBX 4 14 0 -3
BITMAP
F0
30
30
30
30
30
30
30
30
30
30
30
30
F0
ENDCHAR

STARTCHAR asciicircum
ENCODING 94
SWIDTH 606 0
DWIDTH 9 0
BBX 7 6 1 5
BITMAP
10
38
38
6C
44
C6
ENDCHAR

STARTCHAR underscore
ENCODING 95
SWIDTH 500 0
DWIDTH 8 0
BBX 8 1 0 -2
BITMAP
FF
ENDCHAR

STARTCHAR quoteleft
ENCODING 96
SWIDTH 241 0
DWIDTH 4 0
BBX 3 4 0 7
BITMAP
60
80
C0
C0
ENDCHAR

STARTCHAR a
ENCODING 97
SWIDTH 611 0
DWIDTH 9 0
BBX 8 7 1 0
BITMAP
7C
C6
06
7E
C6
C6
7B
ENDCHAR

STARTCHAR b
ENCODING 98
SWIDTH 648 0
DWIDTH 10 0
BBX 9 11 1 0
BITMAP
E000
6000
6000
6000
6E00
7300
6180
6180
6180
7300
4E00
ENDCHAR

STARTCHAR c
ENCODING 99
SWIDTH 556 0
DWIDTH 8 0
BBX 7 7 1 0
BITMAP
3C
66
C4
C0
C0
62
3C
ENDCHAR

STARTCHAR d
ENCODING 100
SWIDTH 667 0
DWIDTH 10 0
BBX 9 11 1 0
BITMAP
0700
0300
0300
0300
3B00
6700
C300
C300
C300
6700
3B80
ENDCHAR

STARTCHAR e
ENCODING 101
SWIDTH 574 0
DWIDTH 9 0
BBX 8 7 1 0
BITMAP
3C
66
C3
FF
C0
61
3E
ENDCHAR

STARTCHAR f
ENCODING 102
SWIDTH 389 0
DWIDTH 6 0
BBX 6 11 1 0
BITMAP
38
6C
68
60
F8
60
60
60
60
60
F0
ENDCHAR

STARTCHAR g
ENCODING 103
SWIDTH 611 0
DWIDTH 9 0
BBX 8 11 1 -3
BITMAP
03
7D
C6
C6
C6
7C
C0
FE
7F
C3
7E
ENDCHAR

STARTCHAR h
ENCODING 104
SWIDTH 685 0
DWIDTH 10 0
BBX 9 11 1 0
BITMAP
E000
6000
6000
6000
6E00
7300
6300
6300
6300
6300
F780
ENDCHAR

STARTCHAR i
ENCODING 105
SWIDTH 370 0
DWIDTH 5 0
BBX 4 11 1 0
BITMAP
60
60
00
00
E0
60
60
60
60
60
F0
ENDCHAR

STARTCHAR j
ENCODING 106
SWIDTH 352 0
DWIDTH 5 0
BBX 4 14 0 -3
BITMAP
30
30
00
00
70
30
30
30
30
30
30
30
A0
C0
ENDCHAR

STARTCHAR k
ENCODING 107
SWIDTH 667 0
DWIDTH 10 0
BBX 9 11 1 0
BITMAP
E000
6000
6000
6000
6F00
6400
6800
7C00
6600
6300
F780
ENDCHAR

STARTCHAR l
ENCODING 108
SWIDTH 352 0
DWIDTH 5 0
BBX 4 11 1 0
BITMAP
E0
60
60
60
60
60
60
60
60
60
F0
ENDCHAR

STARTCHAR m
ENCODING 109
SWIDTH 963 0
DWIDTH 15 0
BBX 14 7 1 0
BITMAP
EE70
7398
6318
6318
6318
6318
F7BC
ENDCHAR

STARTCHAR n
ENCODING 110
SWIDTH 685 0
DWIDTH 10 0
BBX 9 7 1 0
BITMAP
EE00
7300
6300
6300
6300
6300
F780
ENDCHAR

STARTCHAR o
ENCODING 111
SWIDTH 611 0
DWIDTH 9 0
BBX 8 7 1 0
BITMAP
3C
66
C3
C3
C3
66
3C
ENDCHAR

STARTCHAR p
ENCODING 112
SWIDTH 667 0
DWIDTH 10 0
BBX 9 10 1 -3
BITMAP
EE00
7300
6180
6180
6180
7300
6E00
6000
6000
F000
ENDCHAR

STARTCHAR q
ENCODING 113
SWIDTH 648 0
DWIDTH 10 0
BBX 9 10 1 -3
BITMAP
3D00
6300
C300
C300
C300
6700
3B00
0300
0300
0780
ENDCHAR

STARTCHAR r
ENCODING 114
SWIDTH 519 0
DWIDTH 8 0
BBX 7 7 1 0
BITMAP
EC
76
64
60
60
60
F0
ENDCHAR

STARTCHAR s
ENCODING 115
SWIDTH 500 0
DWIDTH 7 0
BBX 6 7 1 0
BITMAP
74
CC
E0
78
1C
CC
B8
ENDCHAR

STARTCHAR t
ENCODING 116
SWIDTH 426 0
DWIDTH 7 0
BBX 6 10 1 0
BITMAP
20
20
60
F8
60
60
60
64
64
38
ENDCHAR

STARTCHAR u
ENCODING 117
SWIDTH 685 0
DWIDTH 10 0
BBX 9 7 1 0
BITMAP
E700
6300
6300
6300
6300
6700
3B80
ENDCHAR

STARTCHAR v
ENCODING 118
SWIDTH 611 0
DWIDTH 9 0
BBX 8 7 1 0
BITMAP
F7
62
62
34
34
18
18
ENDCHAR

STARTCHAR w
ENCODING 119
SWIDTH 889 0
DWIDTH 13 0
BBX 12 7 1 0
BITMAP
EF70
6620
6620
3740
3540
1980
1980
ENDCHAR

STARTCHAR x
ENCODING 120
SWIDTH 611 0
DWIDTH 9 0
BBX 8 7 1 0
BITMAP
F7
62
34
18
2C
46
EF
ENDCHAR

STARTCHAR y
ENCODING 121
SWIDTH 611 0
DWIDTH 9 0
BBX 8 10 1 -3
BITMAP
F7
62
62
34
34
18
18
90
A0
40
ENDCHAR

STARTCHAR z
ENCODING 122
SWIDTH 537 0
DWIDTH 7 0
BBX 6 7 1 0
BITMAP
FC
8C
98
30
64
C4
FC
ENDCHAR

STARTCHAR braceleft
ENCODING 123
SWIDTH 389 0
DWIDTH 6 0
BBX 4 14 1 -3
BITMAP
30
40
60
60
60
20
C0
C0
20
60
60
60
40
30
ENDCHAR

STARTCHAR bar
ENCODING 124
SWIDTH 606 0
DWIDTH 9 0
BBX 2 14 4 -3
BITMAP
C0
C0
C0
C0
C0
C0
C0
C0
C0
C0
C0
C0
C0
C0
ENDCHAR

STARTCHAR braceright
ENCODING 125
SWIDTH 389 0
DWIDTH 6 0
BBX 4 14 1 -3
BITMAP
C0
20
60
60
60
40
30
30
40
60
60
60
20
C0
ENDCHAR

STARTCHAR asciitilde
ENCODING 126
SWIDTH 606 0
DWIDTH 9 0
BBX 8 2 0 4
BITMAP
79
9E
ENDCHAR

STARTCHAR space
ENCODING 160
SWIDTH 287 0
DWIDTH 5 0
BBX 0 0 0 0
BITMAP
ENDCHAR

STARTCHAR Aogonek
ENCODING 161
SWIDTH 759 0
DWIDTH 12 0
BBX 10 13 1 -2
BITMAP
0C00
0C00
0C00
1600
1600
2300
3F00
2300
4180
4180
E3C0
0300
01C0
ENDCHAR

STARTCHAR breve
ENCODING 162
SWIDTH 333 0
DWIDTH 5 0
BBX 5 2 0 8
BITMAP
D8
70
ENDCHAR

STARTCHAR Lslash
ENCODING 163
SWIDTH 722 0
DWIDTH 11 0
BBX 9 11 1 0
BITMAP
F000
6000
6000
6400
6800
7000
6000
E080
6080
6180
FF80
ENDCHAR

STARTCHAR currency
ENCODING 164
SWIDTH 606 0
DWIDTH 9 0
BBX 9 8 0 0
BITMAP
8080
7F00
6300
4100
4100
6300
7F00
8080
ENDCHAR

STARTCHAR Lcaron
ENCODING 165
SWIDTH 722 0
DWIDTH 11 0
BBX 9 11 1 0
BITMAP
F300
6300
6100
6200
6000
6000
6000
6080
6080
6180
FF80
ENDCHAR

STARTCHAR Sacute
ENCODING 166
SWIDTH 667 0
DWIDTH 10 0
BBX 8 14 1 0
BITMAP
0C
18
00
7D
C7
C3
E1
78
3E
0F
83
C3
E6
9C
ENDCHAR

STARTCHAR section
ENCODING 167
SWIDTH 500 0
DWIDTH 8 0
BBX 6 14 1 -3
BITMAP
38
4C
CC
E0
70
D8
CC
CC
6C
38
1C
CC
C8
70
ENDCHAR

STARTCHAR dieresis
ENCODING 168
SWIDTH 333 0
DWIDTH 5 0
BBX 5 2 0 8
BITMAP
D8
D8
ENDCHAR

STARTCHAR Scaron
ENCODING 169
SWIDTH 667 0
DWIDTH 10 0
BBX 8 14 1 0
BITMAP
24
18
00
7D
C7
C3
E1
78
3E
0F
83
C3
E6
9C
ENDCHAR

STARTCHAR Scommaaccent
ENCODING 170
SWIDTH 667 0
DWIDTH 10 0
BBX 8 15 1 -4
BITMAP
7D
C7
C3
E1
78
3E
0F
83
C3
E6
9C
00
18
08
10
ENDCHAR

STARTCHAR Tcaron
ENCODING 171
SWIDTH 722 0
DWIDTH 12 0
BBX 10 14 1 0
BITMAP
1200
0C00
0000
7F80
CCC0
8C40
8C40
0C00
0C00
0C00
0C00
0C00
0C00
1E00
ENDCHAR

STARTCHAR Zacute
ENCODING 172
SWIDTH 667 0
DWIDTH 10 0
BBX 8 14 1 0
BITMAP
0C
18
00
FF
C3
86
8C
0C
18
30
61
61
C3
FF
ENDCHAR

STARTCHAR hyphen
ENCODING 173
SWIDTH 333 0
DWIDTH 5 0
BBX 5 1 0 3
BITMAP
F8
ENDCHAR

STARTCHAR Zcaron
ENCODING 174
SWIDTH 667 0
DWIDTH 10 0
BBX 8 14 1 0
BITMAP
24
18
00
FF
C3
86
8C
0C
18
30
61
61
C3
FF
ENDCHAR

STARTCHAR Zdotaccent
ENCODING 175
SWIDTH 667 0
DWIDTH 10 0
BBX 8 14 1 0
BITMAP
18
18
00
FF
C3
86
8C
0C
18
30
61
61
C3
FF
ENDCHAR

STARTCHAR degree
ENCODING 176
SWIDTH 400 0
DWIDTH 6 0
BBX 5 5 1 6
BITMAP
70
D8
88
D8
70
ENDCHAR

STARTCHAR aogonek
ENCODING 177
SWIDTH 611 0
DWIDTH 9 0
BBX 10 9 1 -2
BITMAP
7C00
C600
0600
7E00
C600
C600
7B00
0300
01C0
ENDCHAR

STARTCHAR ogonek
ENCODING 178
SWIDTH 333 0
DWIDTH 5 0
BBX 4 2 1 -2
BITMAP
C0
70
ENDCHAR

STARTCHAR lslash
ENCODING 179
SWIDTH 352 0
DWIDTH 5 0
BBX 4 11 1 0
BITMAP
E0
60
60
60
70
60
E0
60
60
60
F0
ENDCHAR

STARTCHAR acute
ENCODING 180
SWIDTH 333 0
DWIDTH 5 0
BBX 3 2 1 8
BITMAP
60
C0
ENDCHAR

STARTCHAR lcaron
ENCODING 181
SWIDTH 443 0
DWIDTH 5 0
BBX 5 11 1 0
BITMAP
E8
68
68
70
60
60
60
60
60
60
F0
ENDCHAR

STARTCHAR sacute
ENCODING 182
SWIDTH 500 0
DWIDTH 7 0
BBX 6 10 1 0
BITMAP
18
30
00
74
CC
E0
78
1C
CC
B8
ENDCHAR

STARTCHAR caron
ENCODING 183
SWIDTH 333 0
DWIDTH 5 0
BBX 4 2 1 8
BITMAP
90
60
ENDCHAR

STARTCHAR commaaccent
ENCODING 184
SWIDTH 333 0
DWIDTH 5 0
BBX 2 3 2 -4
BITMAP
C0
40
80
ENDCHAR

STARTCHAR scaron
ENCODING 185
SWIDTH 500 0
DWIDTH 7 0
BBX 6 10 1 0
BITMAP
48
30
00
74
CC
E0
78
1C
CC
B8
ENDCHAR

STARTCHAR scommaaccent
ENCODING 186
SWIDTH 500 0
DWIDTH 7 0
BBX 6 11 1 -4
BITMAP
74
CC
E0
78
1C
CC
B8
00
30
10
20
ENDCHAR

STARTCHAR tcaron
ENCODING 187
SWIDTH 549 0
DWIDTH 7 0
BBX 6 11 1 0
BITMAP
0C
2C
24
68
F8
60
60
60
64
64
38
ENDCHAR

STARTCHAR zacute
ENCODING 188
SWIDTH 537 0
DWIDTH 7 0
BBX 6 10 1 0
BITMAP
18
30
00
FC
8C
98
30
64
C4
FC
ENDCHAR

STARTCHAR hungarumlaut
ENCODING 189
SWIDTH 333 0
DWIDTH 5 0
BBX 6 2 0 8
BITMAP
6C
D8
ENDCHAR

STARTCHAR zcaron
ENCODING 190
SWIDTH 537 0
DWIDTH 7 0
BBX 6 10 1 0
BITMAP
48
30
00
FC
8C
98
30
64
C4
FC
ENDCHAR

STARTCHAR zdotaccent
ENCODING 191
SWIDTH 537 0
DWIDTH 7 0
BBX 6 10 1 0
BITMAP
30
30
00
FC
8C
98
30
64
C4
FC
ENDCHAR

STARTCHAR Racute
ENCODING 192
SWIDTH 815 0
DWIDTH 12 0
BBX 10 14 1 0
BITMAP
0C00
1800
0000
FE00
6300
6180
6180
6300
7E00
6600
6300
6300
6340
F180
ENDCHAR

STARTCHAR Aacute
ENCODING 193
SWIDTH 759 0
DWIDTH 12 0
BBX 10 14 1 0
BITMAP
0600
0C00
0000
0C00
0C00
0C00
1600
1600
2300
3F00
2300
4180
4180
E3C0
ENDCHAR

STARTCHAR Acircumflex
ENCODING 194
SWIDTH 759 0
DWIDTH 12 0
BBX 10 14 1 0
BITMAP
0C00
1200
0000
0C00
0C00
0C00
1600
1600
2300
3F00
2300
4180
4180
E3C0
ENDCHAR

STARTCHAR Abreve
ENCODING 195
SWIDTH 759 0
DWIDTH 12 0
BBX 10 14 1 0
BITMAP
1B00
0E00
0000
0C00
0C00
0C00
1600
1600
2300
3F00
2300
4180
4180
E3C0
ENDCHAR

STARTCHAR Adieresis
ENCODING 196
SWIDTH 759 0
DWIDTH 12 0
BBX 10 14 1 0
BITMAP
1B00
1B00
0000
0C00
0C00
0C00
1600
1600
2300
3F00
2300
4180
4180
E3C0
ENDCHAR

STARTCHAR Lacute
ENCODING 197
SWIDTH 722 0
DWIDTH 11 0
BBX 9 14 1 0
BITMAP
1800
3000
0000
F000
6000
6000
6000
6000
6000
6000
6080
6080
6180
FF80
ENDCHAR

STARTCHAR Cacute
ENCODING 198
SWIDTH 778 0
DWIDTH 12 0
BBX 10 14 1 0
BITMAP
0300
0600
0000
1F40
61C0
60C0
C040
C000
C000
C000
C040
6040
6080
1F00
ENDCHAR

STARTCHAR Ccedilla
ENCODING 199
SWIDTH 778 0
DWIDTH 12 0
BBX 10 14 1 -3
BITMAP
1F40
61C0
60C0
C040
C000
C000
C000
C040
6040
6080
1F00
0400
0200
0C00
ENDCHAR

STARTCHAR Ccaron
ENCODING 200
SWIDTH 778 0
DWIDTH 12 0
BBX 10 14 1 0
BITMAP
0900
0600
0000
1F40
61C0
60C0
C040
C000
C000
C000
C040
6040
6080
1F00
ENDCHAR

STARTCHAR Eacute
ENCODING 201
SWIDTH 759 0
DWIDTH 11 0
BBX 9 14 1 0
BITMAP
0600
0C00
0000
FF80
6180
6080
6480
6400
7C00
6400
6480
6080
6180
FF80
ENDCHAR

STARTCHAR Eogonek
ENCODING 202
SWIDTH 759 0
DWIDTH 11 0
BBX 9 13 1 -2
BITMAP
FF80
6180
6080
6480
6400
7C00
6400
6480
6080
6180
FF80
0600
0380
ENDCHAR

STARTCHAR Edieresis
ENCODING 203
SWIDTH 759 0
DWIDTH 11 0
BBX 9 14 1 0
BITMAP
3600
3600
0000
FF80
6180
6080
6480
6400
7C00
6400
6480
6080
6180
FF80
ENDCHAR

STARTCHAR Ecaron
ENCODING 204
SWIDTH 759 0
DWIDTH 11 0
BBX 9 14 1 0
BITMAP
1200
0C00
0000
FF80
6180
6080
6480
6400
7C00
6400
6480
6080
6180
FF80
ENDCHAR

STARTCHAR Iacute
ENCODING 205
SWIDTH 444 0
DWIDTH 6 0
BBX 4 14 1 0
BITMAP
30
60
00
F0
60
60
60
60
60
60
60
60
60
F0
ENDCHAR

STARTCHAR Icircumflex
ENCODING 206
SWIDTH 444 0
DWIDTH 6 0
BBX 4 14 1 0
BITMAP
60
90
00
F0
60
60
60
60
60
60
60
60
60
F0
ENDCHAR

STARTCHAR Dcaron
ENCODING 207
SWIDTH 833 0
DWIDTH 12 0
BBX 10 14 1 0
BITMAP
1200
0C00
0000
FE00
6180
6180
60C0
60C0
60C0
60C0
60C0
6180
6180
FE00
ENDCHAR

STARTCHAR Dcroat
ENCODING 208
SWIDTH 833 0
DWIDTH 12 0
BBX 10 11 1 0
BITMAP
FE00
6180
6180
60C0
60C0
F8C0
60C0
60C0
6180
6180
FE00
ENDCHAR

STARTCHAR Nacute
ENCODING 209
SWIDTH 833 0
DWIDTH 12 0
BBX 10 14 1 0
BITMAP
0600
0C00
0000
E1C0
7080
7080
5880
4C80
4C80
4680
4380
4380
4180
E080
ENDCHAR

STARTCHAR Ncaron
ENCODING 210
SWIDTH 833 0
DWIDTH 12 0
BBX 10 14 1 0
BITMAP
1200
0C00
0000
E1C0
7080
7080
5880
4C80
4C80
4680
4380
4380
4180
E080
ENDCHAR

STARTCHAR Oacute
ENCODING 211
SWIDTH 833 0
DWIDTH 12 0
BBX 10 14 1 0
BITMAP
0600
0C00
0000
1E00
6180
6180
C0C0
C0C0
C0C0
C0C0
C0C0
6180
6180
1E00
ENDCHAR

STARTCHAR Ocircumflex
ENCODING 212
SWIDTH 833 0
DWIDTH 12 0
BBX 10 14 1 0
BITMAP
0C00
1200
0000
1E00
6180
6180
C0C0
C0C0
C0C0
C0C0
C0C0
6180
6180
1E00
ENDCHAR

STARTCHAR Ohungarumlaut
ENCODING 213
SWIDTH 833 0
DWIDTH 12 0
BBX 10 14 1 0
BITMAP
0D80
1B00
0000
1E00
6180
6180
C0C0
C0C0
C0C0
C0C0
C0C0
6180
6180
1E00
ENDCHAR

STARTCHAR Odieresis
ENCODING 214
SWIDTH 833 0
DWIDTH 12 0
BBX 10 14 1 0
BITMAP
1B00
1B00
0000
1E00
6180
6180
C0C0
C0C0
C0C0
C0C0
C0C0
6180
6180
1E00
ENDCHAR

STARTCHAR multiply
ENCODING 215
SWIDTH 650 0
DWIDTH 10 0
BBX 7 8 1 1
BITMAP
82
C6
6C
38
38
6C
C6
82
ENDCHAR

STARTCHAR Rcaron
ENCODING 216
SWIDTH 815 0
DWIDTH 12 0
BBX 10 14 1 0
BITMAP
1200
0C00
0000
FE00
6300
6180
6180
6300
7E00
6600
6300
6300
6340
F180
ENDCHAR

STARTCHAR Uring
ENCODING 217
SWIDTH 833 0
DWIDTH 12 0
BBX 10 15 1 0
BITMAP
0600
0900
0600
0000
F1C0
6080
6080
6080
6080
6080
6080
6080
6080
3100
1E00
ENDCHAR

STARTCHAR Uacute
ENCODING 218
SWIDTH 833 0
DWIDTH 12 0
BBX 10 14 1 0
BITMAP
0600
0C00
0000
F1C0
6080
6080
6080
6080
6080
6080
6080
6080
3100
1E00
ENDCHAR

STARTCHAR Uhungarumlaut
ENCODING 219
SWIDTH 833 0
DWIDTH 12 0
BBX 10 14 1 0
BITMAP
0D80
1B00
0000
F1C0
6080
6080
6080
6080
6080
6080
6080
6080
3100
1E00
ENDCHAR

STARTCHAR Udieresis
ENCODING 220
SWIDTH 833 0
DWIDTH 12 0
BBX 10 14 1 0
BITMAP
1B00
1B00
0000
F1C0
6080
6080
6080
6080
6080
6080
6080
6080
3100
1E00
ENDCHAR

STARTCHAR Yacute
ENCODING 221
SWIDTH 722 0
DWIDTH 10 0
BBX 10 14 0 0
BITMAP
0600
0C00
0000
F9C0
7080
3100
1900
1A00
0C00
0C00
0C00
0C00
0C00
1E00
ENDCHAR

STARTCHAR Tcommaaccent
ENCODING 222
SWIDTH 722 0
DWIDTH 12 0
BBX 10 15 1 -4
BITMAP
7F80
CCC0
8C40
8C40
0C00
0C00
0C00
0C00
0C00
0C00
1E00
0000
0C00
0400
0800
ENDCHAR

STARTCHAR germandbls
ENCODING 223
SWIDTH 611 0
DWIDTH 9 0
BBX 8 11 0 0
BITMAP
1E
23
63
63
66
62
63
63
63
6B
F6
ENDCHAR

STARTCHAR racute
ENCODING 224
SWIDTH 519 0
DWIDTH 8 0
BBX 7 10 1 0
BITMAP
18
30
00
EC
76
64
60
60
60
F0
ENDCHAR

STARTCHAR aacute
ENCODING 225
SWIDTH 611 0
DWIDTH 9 0
BBX 8 10 1 0
BITMAP
18
30
00
7C
C6
06
7E
C6
C6
7B
ENDCHAR

STARTCHAR acircumflex
ENCODING 226
SWIDTH 611 0
DWIDTH 9 0
BBX 8 10 1 0
BITMAP
18
24
00
7C
C6
06
7E
C6
C6
7B
ENDCHAR

STARTCHAR abreve
ENCODING 227
SWIDTH 611 0
DWIDTH 9 0
BBX 8 10 1 0
BITMAP
6C
38
00
7C
C6
06
7E
C6
C6
7B
ENDCHAR

STARTCHAR adieresis
ENCODING 228
SWIDTH 611 0
DWIDTH 9 0
BBX 8 10 1 0
BITMAP
6C
6C
00
7C
C6
06
7E
C6
C6
7B
ENDCHAR

STARTCHAR lacute
ENCODING 229
SWIDTH 352 0
DWIDTH 5 0
BBX 4 14 1 0
BITMAP
30
60
00
E0
60
60
60
60
60
60
60
60
60
F0
ENDCHAR

STARTCHAR cacute
ENCODING 230
SWIDTH 556 0
DWIDTH 8 0
BBX 7 10 1 0
BITMAP
0C
18
00
3C
66
C4
C0
C0
62
3C
ENDCHAR

STARTCHAR ccedilla
ENCODING 231
SWIDTH 556 0
DWIDTH 8 0
BBX 7 10 1 -3
BITMAP
3C
66
C4
C0
C0
62
3C
10
08
30
ENDCHAR

STARTCHAR ccaron
ENCODING 232
SWIDTH 556 0
DWIDTH 8 0
BBX 7 10 1 0
BITMAP
24
18
00
3C
66
C4
C0
C0
62
3C
ENDCHAR

STARTCHAR eacute
ENCODING 233
SWIDTH 574 0
DWIDTH 9 0
BBX 8 10 1 0
BITMAP
0C
18
00
3C
66
C3
FF
C0
61
3E
ENDCHAR

STARTCHAR eogonek
ENCODING 234
SWIDTH 574 0
DWIDTH 9 0
BBX 8 9 1 -2
BITMAP
3C
66
C3
FF
C0
61
3E
0C
07
ENDCHAR

STARTCHAR edieresis
ENCODING 235
SWIDTH 574 0
DWIDTH 9 0
BBX 8 10 1 0
BITMAP
36
36
00
3C
66
C3
FF
C0
61
3E
ENDCHAR

STARTCHAR ecaron
ENCODING 236
SWIDTH 574 0
DWIDTH 9 0
BBX 8 10 1 0
BITMAP
24
18
00
3C
66
C3
FF
C0
61
3E
ENDCHAR

STARTCHAR iacute
ENCODING 237
SWIDTH 370 0
DWIDTH 5 0
BBX 4 10 1 0
BITMAP
30
60
00
E0
60
60
60
60
60
F0
ENDCHAR

STARTCHAR icircumflex
ENCODING 238
SWIDTH 370 0
DWIDTH 5 0
BBX 4 10 1 0
BITMAP
60
90
00
E0
60
60
60
60
60
F0
ENDCHAR

STARTCHAR dcaron
ENCODING 239
SWIDTH 754 0
DWIDTH 10 0
BBX 10 11 1 0
BITMAP
0740
0340
0340
0380
3B00
6700
C300
C300
C300
6700
3B80
ENDCHAR

STARTCHAR dcroat
ENCODING 240
SWIDTH 667 0
DWIDTH 10 0
BBX 9 11 1 0
BITMAP
0700
0300
0F80
0300
3B00
6700
C300
C300
C300
6700
3B80
ENDCHAR

STARTCHAR nacute
ENCODING 241
SWIDTH 685 0
DWIDTH 10 0
BBX 9 10 1 0
BITMAP
0C00
1800
0000
EE00
7300
6300
6300
6300
6300
F780
ENDCHAR

STARTCHAR ncaron
ENCODING 242
SWIDTH 685 0
DWIDTH 10 0
BBX 9 10 1 0
BITMAP
1200
0C00
0000
EE00
7300
6300
6300
6300
6300
F780
ENDCHAR

STARTCHAR oacute
ENCODING 243
SWIDTH 611 0
DWIDTH 9 0
BBX 8 10 1 0
BITMAP
0C
18
00
3C
66
C3
C3
C3
66
3C
ENDCHAR

STARTCHAR ocircumflex
ENCODING 244
SWIDTH 611 0
DWIDTH 9 0
BBX 8 10 1 0
BITMAP
18
24
00
3C
66
C3
C3
C3
66
3C
ENDCHAR

STARTCHAR ohungarumlaut
ENCODING 245
SWIDTH 611 0
DWIDTH 9 0
BBX 8 10 1 0
BITMAP
1B
36
00
3C
66
C3
C3
C3
66
3C
ENDCHAR

STARTCHAR odieresis
ENCODING 246
SWIDTH 611 0
DWIDTH 9 0
BBX 8 10 1 0
BITMAP
36
36
00
3C
66
C3
C3
C3
66
3C
ENDCHAR

STARTCHAR divide
ENCODING 247
SWIDTH 606 0
DWIDTH 9 0
BBX 8 9 1 0
BITMAP
18
18
00
00
FF
00
00
18
18
ENDCHAR

STARTCHAR rcaron
ENCODING 248
SWIDTH 519 0
DWIDTH 8 0
BBX 7 10 1 0
BITMAP
24
18
00
EC
76
64
60
60
60
F0
ENDCHAR

STARTCHAR uring
ENCODING 249
SWIDTH 685 0
DWIDTH 10 0
BBX 9 11 1 0
BITMAP
0C00
1200
0C00
0000
E700
6300
6300
6300
6300
6700
3B80
ENDCHAR

STARTCHAR uacute
ENCODING 250
SWIDTH 685 0
DWIDTH 10 0
BBX 9 10 1 0
BITMAP
0C00
1800
0000
E700
6300
6300
6300
6300
6700
3B80
ENDCHAR

STARTCHAR uhungarumlaut
ENCODING 251
SWIDTH 685 0
DWIDTH 10 0
BBX 9 10 1 0
BITMAP
1B00
3600
0000
E700
6300
6300
6300
6300
6700
3B80
ENDCHAR

STARTCHAR udieresis
ENCODING 252
SWIDTH 685 0
DWIDTH 10 0
BBX 9 10 1 0
BITMAP
3600
3600
0000
E700
6300
6300
6300
6300
6700
3B80
ENDCHAR

STARTCHAR yacute
ENCODING 253
SWIDTH 611 0
DWIDTH 9 0
BBX 8 13 1 -3
BITMAP
0C
18
00
F7
62
62
34
34
18
18
90
A0
40
ENDCHAR

STARTCHAR tcommaaccent
ENCODING 254
SWIDTH 426 0
DWIDTH 7 0
BBX 6 14 1 -4
BITMAP
20
20
60
F8
60
60
60
64
64
38
00
30
10
20
ENDCHAR

STARTCHAR dotaccent
ENCODING 255
SWIDTH 333 0
DWIDTH 5 0
BBX 2 2 2 8
BITMAP
C0
C0
ENDCHAR
ENDFONT
